<mxfile host="65bd71144e">
    <diagram id="o-uNe6f1r0jmCEsw93o4" name="ページ1">
        <mxGraphModel dx="1615" dy="488" grid="1" gridSize="10" guides="1" tooltips="1" connect="1" arrows="1" fold="1" page="1" pageScale="1" pageWidth="827" pageHeight="1169" math="0" shadow="0">
            <root>
                <mxCell id="0"/>
                <mxCell id="1" parent="0"/>
                <mxCell id="10" value="" style="group" parent="1" vertex="1" connectable="0">
                    <mxGeometry x="240" y="30" width="390" height="240" as="geometry"/>
                </mxCell>
                <mxCell id="2" value="" style="rounded=0;whiteSpace=wrap;html=1;fillColor=#B3B3B3;fontColor=#333333;strokeColor=#666666;" parent="10" vertex="1">
                    <mxGeometry y="50" width="320" height="200" as="geometry"/>
                </mxCell>
                <mxCell id="12" value="&lt;font style=&quot;font-size: 70px; color: rgb(0, 0, 0);&quot;&gt;25:00&lt;/font&gt;" style="rounded=0;whiteSpace=wrap;html=1;fillColor=none;strokeColor=none;" parent="10" vertex="1">
                    <mxGeometry x="37.71428571428572" y="105" width="244.57142857142853" height="90" as="geometry"/>
                </mxCell>
                <mxCell id="13" value="&lt;font style=&quot;font-size: 17px; color: rgb(0, 0, 0);&quot;&gt;Work&lt;/font&gt;" style="rounded=0;whiteSpace=wrap;html=1;fillColor=none;strokeColor=none;" parent="10" vertex="1">
                    <mxGeometry x="84.65414634146342" y="80" width="161.43" height="50" as="geometry"/>
                </mxCell>
                <mxCell id="46" value="&lt;span style=&quot;font-size: 17px;&quot;&gt;&lt;font style=&quot;color: rgb(0, 0, 0);&quot;&gt;3/4&lt;/font&gt;&lt;/span&gt;" style="rounded=0;whiteSpace=wrap;html=1;fillColor=none;strokeColor=none;" parent="10" vertex="1">
                    <mxGeometry x="84.65487804878047" y="55" width="161.43" height="50" as="geometry"/>
                </mxCell>
                <mxCell id="49" value="" style="group" parent="10" vertex="1" connectable="0">
                    <mxGeometry y="30" width="320" height="23" as="geometry"/>
                </mxCell>
                <mxCell id="8" value="" style="rounded=0;whiteSpace=wrap;html=1;fillColor=#f5f5f5;fontColor=#333333;strokeColor=#666666;" parent="49" vertex="1">
                    <mxGeometry width="320" height="23" as="geometry"/>
                </mxCell>
                <mxCell id="11" value="" style="group" parent="49" vertex="1" connectable="0">
                    <mxGeometry x="11.428571428571429" y="6" width="44.57142857142858" height="10" as="geometry"/>
                </mxCell>
                <mxCell id="4" value="" style="ellipse;whiteSpace=wrap;html=1;aspect=fixed;" parent="11" vertex="1">
                    <mxGeometry width="7.60475297060663" height="7.60475297060663" as="geometry"/>
                </mxCell>
                <mxCell id="5" value="" style="ellipse;whiteSpace=wrap;html=1;aspect=fixed;" parent="11" vertex="1">
                    <mxGeometry x="16.000000000000004" width="7.60475297060663" height="7.60475297060663" as="geometry"/>
                </mxCell>
                <mxCell id="6" value="" style="ellipse;whiteSpace=wrap;html=1;aspect=fixed;" parent="11" vertex="1">
                    <mxGeometry x="33.14285714285715" width="7.60475297060663" height="7.60475297060663" as="geometry"/>
                </mxCell>
                <mxCell id="119" value="| |" style="rounded=1;whiteSpace=wrap;html=1;strokeWidth=2;" parent="10" vertex="1">
                    <mxGeometry x="150.37" y="195" width="30" height="30" as="geometry"/>
                </mxCell>
                <mxCell id="118" value="&lt;font style=&quot;font-size: 23px;&quot;&gt;&lt;b&gt;×&lt;/b&gt;&lt;/font&gt;" style="rounded=1;whiteSpace=wrap;html=1;fillColor=none;strokeColor=none;" parent="10" vertex="1">
                    <mxGeometry x="260" y="60" width="70" height="30" as="geometry"/>
                </mxCell>
                <mxCell id="50" value="" style="rounded=0;whiteSpace=wrap;html=1;" parent="1" vertex="1">
                    <mxGeometry x="620" y="80" width="320" height="200" as="geometry"/>
                </mxCell>
                <mxCell id="51" value="&lt;font style=&quot;font-size: 70px;&quot;&gt;05:00&lt;/font&gt;" style="rounded=0;whiteSpace=wrap;html=1;fillColor=none;strokeColor=none;" parent="1" vertex="1">
                    <mxGeometry x="651.4383516483516" y="135" width="257.11355311355305" height="90" as="geometry"/>
                </mxCell>
                <mxCell id="52" value="&lt;font style=&quot;font-size: 17px;&quot;&gt;Break&lt;/font&gt;" style="rounded=0;whiteSpace=wrap;html=1;fillColor=none;strokeColor=none;" parent="1" vertex="1">
                    <mxGeometry x="695.1453846153846" y="110" width="169.70846153846153" height="50" as="geometry"/>
                </mxCell>
                <mxCell id="53" value="&lt;span style=&quot;font-size: 17px;&quot;&gt;3/4&lt;/span&gt;" style="rounded=0;whiteSpace=wrap;html=1;fillColor=none;strokeColor=none;" parent="1" vertex="1">
                    <mxGeometry x="720.14" y="85" width="119.72" height="50" as="geometry"/>
                </mxCell>
                <mxCell id="54" value="" style="group" parent="1" vertex="1" connectable="0">
                    <mxGeometry x="620" y="60" width="320" height="23" as="geometry"/>
                </mxCell>
                <mxCell id="55" value="" style="rounded=0;whiteSpace=wrap;html=1;fillColor=#f5f5f5;fontColor=#333333;strokeColor=#666666;" parent="54" vertex="1">
                    <mxGeometry width="320" height="23" as="geometry"/>
                </mxCell>
                <mxCell id="56" value="" style="group" parent="54" vertex="1" connectable="0">
                    <mxGeometry x="11.428571428571429" y="6" width="44.57142857142858" height="10" as="geometry"/>
                </mxCell>
                <mxCell id="57" value="" style="ellipse;whiteSpace=wrap;html=1;aspect=fixed;" parent="56" vertex="1">
                    <mxGeometry width="7.3170731707317085" height="7.3170731707317085" as="geometry"/>
                </mxCell>
                <mxCell id="58" value="" style="ellipse;whiteSpace=wrap;html=1;aspect=fixed;" parent="56" vertex="1">
                    <mxGeometry x="16.000000000000004" width="7.3170731707317085" height="7.3170731707317085" as="geometry"/>
                </mxCell>
                <mxCell id="59" value="" style="ellipse;whiteSpace=wrap;html=1;aspect=fixed;" parent="56" vertex="1">
                    <mxGeometry x="33.142857142857146" width="7.3170731707317085" height="7.3170731707317085" as="geometry"/>
                </mxCell>
                <mxCell id="60" value="" style="rounded=0;whiteSpace=wrap;html=1;fillColor=#E6E6E6;fontColor=#333333;strokeColor=#666666;" parent="1" vertex="1">
                    <mxGeometry x="-140" y="80" width="336.41" height="210" as="geometry"/>
                </mxCell>
                <mxCell id="64" value="" style="group" parent="1" vertex="1" connectable="0">
                    <mxGeometry x="-140" y="60" width="336.41025641025635" height="23" as="geometry"/>
                </mxCell>
                <mxCell id="65" value="" style="rounded=0;whiteSpace=wrap;html=1;fillColor=#f5f5f5;fontColor=#333333;strokeColor=#666666;" parent="64" vertex="1">
                    <mxGeometry width="336.41025641025635" height="23" as="geometry"/>
                </mxCell>
                <mxCell id="66" value="" style="group" parent="64" vertex="1" connectable="0">
                    <mxGeometry x="12.014652014652013" y="6" width="46.857142857142854" height="10" as="geometry"/>
                </mxCell>
                <mxCell id="67" value="" style="ellipse;whiteSpace=wrap;html=1;aspect=fixed;" parent="66" vertex="1">
                    <mxGeometry width="8.205128205128204" height="8.205128205128204" as="geometry"/>
                </mxCell>
                <mxCell id="68" value="" style="ellipse;whiteSpace=wrap;html=1;aspect=fixed;" parent="66" vertex="1">
                    <mxGeometry x="16.82051282051282" width="8.205128205128204" height="8.205128205128204" as="geometry"/>
                </mxCell>
                <mxCell id="69" value="" style="ellipse;whiteSpace=wrap;html=1;aspect=fixed;" parent="66" vertex="1">
                    <mxGeometry x="34.84249084249084" width="8.205128205128204" height="8.205128205128204" as="geometry"/>
                </mxCell>
                <mxCell id="70" value="&lt;span style=&quot;font-size: 17px;&quot;&gt;Setting&lt;/span&gt;" style="rounded=0;whiteSpace=wrap;html=1;fillColor=none;strokeColor=none;" parent="1" vertex="1">
                    <mxGeometry x="-56.64461538461535" y="83" width="169.70846153846153" height="50" as="geometry"/>
                </mxCell>
                <mxCell id="83" value="" style="group" parent="1" vertex="1" connectable="0">
                    <mxGeometry x="-84.28999999999999" y="114" width="225" height="132" as="geometry"/>
                </mxCell>
                <mxCell id="71" value="&lt;span style=&quot;font-size: 17px;&quot;&gt;Work&lt;/span&gt;" style="rounded=0;whiteSpace=wrap;html=1;fillColor=none;strokeColor=none;" parent="83" vertex="1">
                    <mxGeometry width="110" height="52" as="geometry"/>
                </mxCell>
                <mxCell id="72" value="&lt;span style=&quot;font-size: 17px;&quot;&gt;Break&lt;/span&gt;" style="rounded=0;whiteSpace=wrap;html=1;fillColor=none;strokeColor=none;" parent="83" vertex="1">
                    <mxGeometry y="40" width="110" height="52" as="geometry"/>
                </mxCell>
                <mxCell id="73" value="&lt;span style=&quot;font-size: 17px;&quot;&gt;Repeat&lt;/span&gt;" style="rounded=0;whiteSpace=wrap;html=1;fillColor=none;strokeColor=none;" parent="83" vertex="1">
                    <mxGeometry y="80" width="110" height="52" as="geometry"/>
                </mxCell>
                <mxCell id="76" value="" style="group" parent="83" vertex="1" connectable="0">
                    <mxGeometry x="100" y="14" width="125" height="34" as="geometry"/>
                </mxCell>
                <mxCell id="74" value="" style="rounded=1;whiteSpace=wrap;html=1;" parent="76" vertex="1">
                    <mxGeometry width="80" height="26" as="geometry"/>
                </mxCell>
                <mxCell id="75" value="&lt;font style=&quot;font-size: 11px;&quot;&gt;min&lt;/font&gt;" style="rounded=0;whiteSpace=wrap;html=1;fillColor=none;strokeColor=none;" parent="76" vertex="1">
                    <mxGeometry x="65" y="2" width="60" height="30" as="geometry"/>
                </mxCell>
                <mxCell id="77" value="" style="group" parent="83" vertex="1" connectable="0">
                    <mxGeometry x="100" y="52" width="125" height="34" as="geometry"/>
                </mxCell>
                <mxCell id="78" value="" style="rounded=1;whiteSpace=wrap;html=1;" parent="77" vertex="1">
                    <mxGeometry width="80" height="26" as="geometry"/>
                </mxCell>
                <mxCell id="79" value="&lt;font style=&quot;font-size: 11px;&quot;&gt;min&lt;/font&gt;" style="rounded=0;whiteSpace=wrap;html=1;fillColor=none;strokeColor=none;" parent="77" vertex="1">
                    <mxGeometry x="65" y="2" width="60" height="30" as="geometry"/>
                </mxCell>
                <mxCell id="80" value="" style="group" parent="83" vertex="1" connectable="0">
                    <mxGeometry x="100" y="92" width="125" height="34" as="geometry"/>
                </mxCell>
                <mxCell id="81" value="" style="rounded=1;whiteSpace=wrap;html=1;" parent="80" vertex="1">
                    <mxGeometry width="80" height="26" as="geometry"/>
                </mxCell>
                <mxCell id="84" value="START" style="rounded=1;whiteSpace=wrap;html=1;" parent="1" vertex="1">
                    <mxGeometry x="-16.79" y="249" width="90" height="30" as="geometry"/>
                </mxCell>
                <mxCell id="86" value="" style="group;fillColor=#B3B3B3;" parent="1" vertex="1" connectable="0">
                    <mxGeometry x="240" y="279" width="80.28" height="10" as="geometry"/>
                </mxCell>
                <mxCell id="87" value="&lt;span style=&quot;font-family: monospace; font-size: 0px; text-align: start; text-wrap: nowrap;&quot;&gt;%3CmxGraphModel%3E%3Croot%3E%3CmxCell%20id%3D%220%22%2F%3E%3CmxCell%20id%3D%221%22%20parent%3D%220%22%2F%3E%3CmxCell%20id%3D%222%22%20value%3D%22%26lt%3Bfont%20style%3D%26quot%3Bfont-size%3A%2021px%3B%26quot%3B%26gt%3B%26lt%3Bb%26gt%3B%7C%20%7C%26lt%3B%2Fb%26gt%3B%26lt%3B%2Ffont%26gt%3B%22%20style%3D%22ellipse%3BwhiteSpace%3Dwrap%3Bhtml%3D1%3BfillColor%3D%23FFFF66%3BstrokeColor%3Dnone%3B%22%20vertex%3D%221%22%20parent%3D%221%22%3E%3CmxGeometry%20x%3D%22174%22%20y%3D%22260%22%20width%3D%2240%22%20height%3D%2230%22%20as%3D%22geometry%22%2F%3E%3C%2FmxCell%3E%3C%2Froot%3E%3C%2FmxGraphModel%3E&lt;/span&gt;" style="rounded=0;whiteSpace=wrap;html=1;fillColor=none;" parent="86" vertex="1">
                    <mxGeometry width="80" height="10" as="geometry"/>
                </mxCell>
                <mxCell id="88" value="&lt;span style=&quot;font-family: monospace; font-size: 0px; text-align: start; text-wrap: nowrap;&quot;&gt;%3CmxGraphModel%3E%3Croot%3E%3CmxCell%20id%3D%220%22%2F%3E%3CmxCell%20id%3D%221%22%20parent%3D%220%22%2F%3E%3CmxCell%20id%3D%222%22%20value%3D%22%26lt%3Bfont%20style%3D%26quot%3Bfont-size%3A%2021px%3B%26quot%3B%26gt%3B%26lt%3Bb%26gt%3B%7C%20%7C%26lt%3B%2Fb%26gt%3B%26lt%3B%2Ffont%26gt%3B%22%20style%3D%22ellipse%3BwhiteSpace%3Dwrap%3Bhtml%3D1%3BfillColor%3D%23FFFF66%3BstrokeColor%3Dnone%3B%22%20vertex%3D%221%22%20parent%3D%221%22%3E%3CmxGeometry%20x%3D%22174%22%20y%3D%22260%22%20width%3D%2240%22%20height%3D%2230%22%20as%3D%22geometry%22%2F%3E%3C%2FmxCell%3E%3C%2Froot%3E%3C%2FmxGraphModel%3E&lt;/span&gt;" style="rounded=0;whiteSpace=wrap;html=1;fillColor=#FFFFFF;" parent="86" vertex="1">
                    <mxGeometry x="60.28" width="20" height="10" as="geometry"/>
                </mxCell>
                <mxCell id="89" value="" style="group;fillColor=#B3B3B3;strokeColor=default;" parent="1" vertex="1" connectable="0">
                    <mxGeometry x="320" y="279" width="80.28" height="10" as="geometry"/>
                </mxCell>
                <mxCell id="91" value="&lt;span style=&quot;font-family: monospace; font-size: 0px; text-align: start; text-wrap: nowrap;&quot;&gt;%3CmxGraphModel%3E%3Croot%3E%3CmxCell%20id%3D%220%22%2F%3E%3CmxCell%20id%3D%221%22%20parent%3D%220%22%2F%3E%3CmxCell%20id%3D%222%22%20value%3D%22%26lt%3Bfont%20style%3D%26quot%3Bfont-size%3A%2021px%3B%26quot%3B%26gt%3B%26lt%3Bb%26gt%3B%7C%20%7C%26lt%3B%2Fb%26gt%3B%26lt%3B%2Ffont%26gt%3B%22%20style%3D%22ellipse%3BwhiteSpace%3Dwrap%3Bhtml%3D1%3BfillColor%3D%23FFFF66%3BstrokeColor%3Dnone%3B%22%20vertex%3D%221%22%20parent%3D%221%22%3E%3CmxGeometry%20x%3D%22174%22%20y%3D%22260%22%20width%3D%2240%22%20height%3D%2230%22%20as%3D%22geometry%22%2F%3E%3C%2FmxCell%3E%3C%2Froot%3E%3C%2FmxGraphModel%3E&lt;/span&gt;" style="rounded=0;whiteSpace=wrap;html=1;fillColor=#FFFFFF;" parent="89" vertex="1">
                    <mxGeometry x="60.28" width="20" height="10" as="geometry"/>
                </mxCell>
                <mxCell id="92" value="" style="group;fillColor=#B3B3B3;strokeColor=#FF6666;" parent="1" vertex="1" connectable="0">
                    <mxGeometry x="400" y="279" width="80.28" height="10" as="geometry"/>
                </mxCell>
                <mxCell id="93" value="&lt;span style=&quot;font-family: monospace; font-size: 0px; text-align: start; text-wrap: nowrap;&quot;&gt;%3CmxGraphModel%3E%3Croot%3E%3CmxCell%20id%3D%220%22%2F%3E%3CmxCell%20id%3D%221%22%20parent%3D%220%22%2F%3E%3CmxCell%20id%3D%222%22%20value%3D%22%26lt%3Bfont%20style%3D%26quot%3Bfont-size%3A%2021px%3B%26quot%3B%26gt%3B%26lt%3Bb%26gt%3B%7C%20%7C%26lt%3B%2Fb%26gt%3B%26lt%3B%2Ffont%26gt%3B%22%20style%3D%22ellipse%3BwhiteSpace%3Dwrap%3Bhtml%3D1%3BfillColor%3D%23FFFF66%3BstrokeColor%3Dnone%3B%22%20vertex%3D%221%22%20parent%3D%221%22%3E%3CmxGeometry%20x%3D%22174%22%20y%3D%22260%22%20width%3D%2240%22%20height%3D%2230%22%20as%3D%22geometry%22%2F%3E%3C%2FmxCell%3E%3C%2Froot%3E%3C%2FmxGraphModel%3E&lt;/span&gt;" style="rounded=0;whiteSpace=wrap;html=1;fillColor=none;strokeColor=#FF6666;" parent="92" vertex="1">
                    <mxGeometry width="80" height="10" as="geometry"/>
                </mxCell>
                <mxCell id="94" value="&lt;span style=&quot;font-family: monospace; font-size: 0px; text-align: start; text-wrap: nowrap;&quot;&gt;%3CmxGraphModel%3E%3Croot%3E%3CmxCell%20id%3D%220%22%2F%3E%3CmxCell%20id%3D%221%22%20parent%3D%220%22%2F%3E%3CmxCell%20id%3D%222%22%20value%3D%22%26lt%3Bfont%20style%3D%26quot%3Bfont-size%3A%2021px%3B%26quot%3B%26gt%3B%26lt%3Bb%26gt%3B%7C%20%7C%26lt%3B%2Fb%26gt%3B%26lt%3B%2Ffont%26gt%3B%22%20style%3D%22ellipse%3BwhiteSpace%3Dwrap%3Bhtml%3D1%3BfillColor%3D%23FFFF66%3BstrokeColor%3Dnone%3B%22%20vertex%3D%221%22%20parent%3D%221%22%3E%3CmxGeometry%20x%3D%22174%22%20y%3D%22260%22%20width%3D%2240%22%20height%3D%2230%22%20as%3D%22geometry%22%2F%3E%3C%2FmxCell%3E%3C%2Froot%3E%3C%2FmxGraphModel%3E&lt;/span&gt;" style="rounded=0;whiteSpace=wrap;html=1;fillColor=#FFFFFF;" parent="92" vertex="1">
                    <mxGeometry x="60.28" width="20" height="10" as="geometry"/>
                </mxCell>
                <mxCell id="124" value="" style="rounded=0;whiteSpace=wrap;html=1;strokeColor=#FF6666;strokeWidth=1;fillColor=#FF6666;" vertex="1" parent="92">
                    <mxGeometry x="0.2799999999999727" width="60" height="10" as="geometry"/>
                </mxCell>
                <mxCell id="96" value="" style="group;fillColor=#FFFFFF;" parent="1" vertex="1" connectable="0">
                    <mxGeometry x="480" y="279" width="80.28" height="10" as="geometry"/>
                </mxCell>
                <mxCell id="97" value="&lt;span style=&quot;font-family: monospace; font-size: 0px; text-align: start; text-wrap: nowrap;&quot;&gt;%3CmxGraphModel%3E%3Croot%3E%3CmxCell%20id%3D%220%22%2F%3E%3CmxCell%20id%3D%221%22%20parent%3D%220%22%2F%3E%3CmxCell%20id%3D%222%22%20value%3D%22%26lt%3Bfont%20style%3D%26quot%3Bfont-size%3A%2021px%3B%26quot%3B%26gt%3B%26lt%3Bb%26gt%3B%7C%20%7C%26lt%3B%2Fb%26gt%3B%26lt%3B%2Ffont%26gt%3B%22%20style%3D%22ellipse%3BwhiteSpace%3Dwrap%3Bhtml%3D1%3BfillColor%3D%23FFFF66%3BstrokeColor%3Dnone%3B%22%20vertex%3D%221%22%20parent%3D%221%22%3E%3CmxGeometry%20x%3D%22174%22%20y%3D%22260%22%20width%3D%2240%22%20height%3D%2230%22%20as%3D%22geometry%22%2F%3E%3C%2FmxCell%3E%3C%2Froot%3E%3C%2FmxGraphModel%3E&lt;/span&gt;" style="rounded=0;whiteSpace=wrap;html=1;fillColor=none;" parent="96" vertex="1">
                    <mxGeometry width="80" height="10" as="geometry"/>
                </mxCell>
                <mxCell id="98" value="&lt;span style=&quot;font-family: monospace; font-size: 0px; text-align: start; text-wrap: nowrap;&quot;&gt;%3CmxGraphModel%3E%3Croot%3E%3CmxCell%20id%3D%220%22%2F%3E%3CmxCell%20id%3D%221%22%20parent%3D%220%22%2F%3E%3CmxCell%20id%3D%222%22%20value%3D%22%26lt%3Bfont%20style%3D%26quot%3Bfont-size%3A%2021px%3B%26quot%3B%26gt%3B%26lt%3Bb%26gt%3B%7C%20%7C%26lt%3B%2Fb%26gt%3B%26lt%3B%2Ffont%26gt%3B%22%20style%3D%22ellipse%3BwhiteSpace%3Dwrap%3Bhtml%3D1%3BfillColor%3D%23FFFF66%3BstrokeColor%3Dnone%3B%22%20vertex%3D%221%22%20parent%3D%221%22%3E%3CmxGeometry%20x%3D%22174%22%20y%3D%22260%22%20width%3D%2240%22%20height%3D%2230%22%20as%3D%22geometry%22%2F%3E%3C%2FmxCell%3E%3C%2Froot%3E%3C%2FmxGraphModel%3E&lt;/span&gt;" style="rounded=0;whiteSpace=wrap;html=1;fillColor=#FFFFFF;" parent="96" vertex="1">
                    <mxGeometry x="60.28" width="20" height="10" as="geometry"/>
                </mxCell>
                <mxCell id="102" value="" style="group;fillColor=#B3B3B3;" parent="1" vertex="1" connectable="0">
                    <mxGeometry x="620" y="280" width="80.28" height="10" as="geometry"/>
                </mxCell>
                <mxCell id="103" value="&lt;span style=&quot;font-family: monospace; font-size: 0px; text-align: start; text-wrap: nowrap;&quot;&gt;%3CmxGraphModel%3E%3Croot%3E%3CmxCell%20id%3D%220%22%2F%3E%3CmxCell%20id%3D%221%22%20parent%3D%220%22%2F%3E%3CmxCell%20id%3D%222%22%20value%3D%22%26lt%3Bfont%20style%3D%26quot%3Bfont-size%3A%2021px%3B%26quot%3B%26gt%3B%26lt%3Bb%26gt%3B%7C%20%7C%26lt%3B%2Fb%26gt%3B%26lt%3B%2Ffont%26gt%3B%22%20style%3D%22ellipse%3BwhiteSpace%3Dwrap%3Bhtml%3D1%3BfillColor%3D%23FFFF66%3BstrokeColor%3Dnone%3B%22%20vertex%3D%221%22%20parent%3D%221%22%3E%3CmxGeometry%20x%3D%22174%22%20y%3D%22260%22%20width%3D%2240%22%20height%3D%2230%22%20as%3D%22geometry%22%2F%3E%3C%2FmxCell%3E%3C%2Froot%3E%3C%2FmxGraphModel%3E&lt;/span&gt;" style="rounded=0;whiteSpace=wrap;html=1;fillColor=none;" parent="102" vertex="1">
                    <mxGeometry width="80" height="10" as="geometry"/>
                </mxCell>
                <mxCell id="104" value="&lt;span style=&quot;font-family: monospace; font-size: 0px; text-align: start; text-wrap: nowrap;&quot;&gt;%3CmxGraphModel%3E%3Croot%3E%3CmxCell%20id%3D%220%22%2F%3E%3CmxCell%20id%3D%221%22%20parent%3D%220%22%2F%3E%3CmxCell%20id%3D%222%22%20value%3D%22%26lt%3Bfont%20style%3D%26quot%3Bfont-size%3A%2021px%3B%26quot%3B%26gt%3B%26lt%3Bb%26gt%3B%7C%20%7C%26lt%3B%2Fb%26gt%3B%26lt%3B%2Ffont%26gt%3B%22%20style%3D%22ellipse%3BwhiteSpace%3Dwrap%3Bhtml%3D1%3BfillColor%3D%23FFFF66%3BstrokeColor%3Dnone%3B%22%20vertex%3D%221%22%20parent%3D%221%22%3E%3CmxGeometry%20x%3D%22174%22%20y%3D%22260%22%20width%3D%2240%22%20height%3D%2230%22%20as%3D%22geometry%22%2F%3E%3C%2FmxCell%3E%3C%2Froot%3E%3C%2FmxGraphModel%3E&lt;/span&gt;" style="rounded=0;whiteSpace=wrap;html=1;fillColor=#FFFFFF;" parent="102" vertex="1">
                    <mxGeometry x="60.28" width="20" height="10" as="geometry"/>
                </mxCell>
                <mxCell id="105" value="" style="group;fillColor=#B3B3B3;strokeColor=default;" parent="1" vertex="1" connectable="0">
                    <mxGeometry x="700" y="280" width="80.28" height="10" as="geometry"/>
                </mxCell>
                <mxCell id="106" value="&lt;span style=&quot;font-family: monospace; font-size: 0px; text-align: start; text-wrap: nowrap;&quot;&gt;%3CmxGraphModel%3E%3Croot%3E%3CmxCell%20id%3D%220%22%2F%3E%3CmxCell%20id%3D%221%22%20parent%3D%220%22%2F%3E%3CmxCell%20id%3D%222%22%20value%3D%22%26lt%3Bfont%20style%3D%26quot%3Bfont-size%3A%2021px%3B%26quot%3B%26gt%3B%26lt%3Bb%26gt%3B%7C%20%7C%26lt%3B%2Fb%26gt%3B%26lt%3B%2Ffont%26gt%3B%22%20style%3D%22ellipse%3BwhiteSpace%3Dwrap%3Bhtml%3D1%3BfillColor%3D%23FFFF66%3BstrokeColor%3Dnone%3B%22%20vertex%3D%221%22%20parent%3D%221%22%3E%3CmxGeometry%20x%3D%22174%22%20y%3D%22260%22%20width%3D%2240%22%20height%3D%2230%22%20as%3D%22geometry%22%2F%3E%3C%2FmxCell%3E%3C%2Froot%3E%3C%2FmxGraphModel%3E&lt;/span&gt;" style="rounded=0;whiteSpace=wrap;html=1;fillColor=#FFFFFF;" parent="105" vertex="1">
                    <mxGeometry x="60.28" width="20" height="10" as="geometry"/>
                </mxCell>
                <mxCell id="107" value="" style="group;fillColor=#B3B3B3;" parent="1" vertex="1" connectable="0">
                    <mxGeometry x="780" y="280" width="80.28" height="10" as="geometry"/>
                </mxCell>
                <mxCell id="108" value="&lt;span style=&quot;font-family: monospace; font-size: 0px; text-align: start; text-wrap: nowrap;&quot;&gt;%3CmxGraphModel%3E%3Croot%3E%3CmxCell%20id%3D%220%22%2F%3E%3CmxCell%20id%3D%221%22%20parent%3D%220%22%2F%3E%3CmxCell%20id%3D%222%22%20value%3D%22%26lt%3Bfont%20style%3D%26quot%3Bfont-size%3A%2021px%3B%26quot%3B%26gt%3B%26lt%3Bb%26gt%3B%7C%20%7C%26lt%3B%2Fb%26gt%3B%26lt%3B%2Ffont%26gt%3B%22%20style%3D%22ellipse%3BwhiteSpace%3Dwrap%3Bhtml%3D1%3BfillColor%3D%23FFFF66%3BstrokeColor%3Dnone%3B%22%20vertex%3D%221%22%20parent%3D%221%22%3E%3CmxGeometry%20x%3D%22174%22%20y%3D%22260%22%20width%3D%2240%22%20height%3D%2230%22%20as%3D%22geometry%22%2F%3E%3C%2FmxCell%3E%3C%2Froot%3E%3C%2FmxGraphModel%3E&lt;/span&gt;" style="rounded=0;whiteSpace=wrap;html=1;fillColor=none;" parent="107" vertex="1">
                    <mxGeometry width="80" height="10" as="geometry"/>
                </mxCell>
                <mxCell id="109" value="&lt;span style=&quot;font-family: monospace; font-size: 0px; text-align: start; text-wrap: nowrap;&quot;&gt;%3CmxGraphModel%3E%3Croot%3E%3CmxCell%20id%3D%220%22%2F%3E%3CmxCell%20id%3D%221%22%20parent%3D%220%22%2F%3E%3CmxCell%20id%3D%222%22%20value%3D%22%26lt%3Bfont%20style%3D%26quot%3Bfont-size%3A%2021px%3B%26quot%3B%26gt%3B%26lt%3Bb%26gt%3B%7C%20%7C%26lt%3B%2Fb%26gt%3B%26lt%3B%2Ffont%26gt%3B%22%20style%3D%22ellipse%3BwhiteSpace%3Dwrap%3Bhtml%3D1%3BfillColor%3D%23FFFF66%3BstrokeColor%3Dnone%3B%22%20vertex%3D%221%22%20parent%3D%221%22%3E%3CmxGeometry%20x%3D%22174%22%20y%3D%22260%22%20width%3D%2240%22%20height%3D%2230%22%20as%3D%22geometry%22%2F%3E%3C%2FmxCell%3E%3C%2Froot%3E%3C%2FmxGraphModel%3E&lt;/span&gt;" style="rounded=0;whiteSpace=wrap;html=1;fillColor=#FFFFFF;strokeColor=#FF6666;" parent="107" vertex="1">
                    <mxGeometry x="60.28" width="20" height="10" as="geometry"/>
                </mxCell>
                <mxCell id="125" value="" style="rounded=0;whiteSpace=wrap;html=1;strokeColor=#FF6666;strokeWidth=1;fillColor=#FF6666;" vertex="1" parent="107">
                    <mxGeometry x="60.27999999999997" width="20" height="10" as="geometry"/>
                </mxCell>
                <mxCell id="110" value="" style="group;fillColor=#FFFFFF;" parent="1" vertex="1" connectable="0">
                    <mxGeometry x="860" y="280" width="80.28" height="10" as="geometry"/>
                </mxCell>
                <mxCell id="111" value="&lt;span style=&quot;font-family: monospace; font-size: 0px; text-align: start; text-wrap: nowrap;&quot;&gt;%3CmxGraphModel%3E%3Croot%3E%3CmxCell%20id%3D%220%22%2F%3E%3CmxCell%20id%3D%221%22%20parent%3D%220%22%2F%3E%3CmxCell%20id%3D%222%22%20value%3D%22%26lt%3Bfont%20style%3D%26quot%3Bfont-size%3A%2021px%3B%26quot%3B%26gt%3B%26lt%3Bb%26gt%3B%7C%20%7C%26lt%3B%2Fb%26gt%3B%26lt%3B%2Ffont%26gt%3B%22%20style%3D%22ellipse%3BwhiteSpace%3Dwrap%3Bhtml%3D1%3BfillColor%3D%23FFFF66%3BstrokeColor%3Dnone%3B%22%20vertex%3D%221%22%20parent%3D%221%22%3E%3CmxGeometry%20x%3D%22174%22%20y%3D%22260%22%20width%3D%2240%22%20height%3D%2230%22%20as%3D%22geometry%22%2F%3E%3C%2FmxCell%3E%3C%2Froot%3E%3C%2FmxGraphModel%3E&lt;/span&gt;" style="rounded=0;whiteSpace=wrap;html=1;fillColor=none;" parent="110" vertex="1">
                    <mxGeometry width="80" height="10" as="geometry"/>
                </mxCell>
                <mxCell id="112" value="&lt;span style=&quot;font-family: monospace; font-size: 0px; text-align: start; text-wrap: nowrap;&quot;&gt;%3CmxGraphModel%3E%3Croot%3E%3CmxCell%20id%3D%220%22%2F%3E%3CmxCell%20id%3D%221%22%20parent%3D%220%22%2F%3E%3CmxCell%20id%3D%222%22%20value%3D%22%26lt%3Bfont%20style%3D%26quot%3Bfont-size%3A%2021px%3B%26quot%3B%26gt%3B%26lt%3Bb%26gt%3B%7C%20%7C%26lt%3B%2Fb%26gt%3B%26lt%3B%2Ffont%26gt%3B%22%20style%3D%22ellipse%3BwhiteSpace%3Dwrap%3Bhtml%3D1%3BfillColor%3D%23FFFF66%3BstrokeColor%3Dnone%3B%22%20vertex%3D%221%22%20parent%3D%221%22%3E%3CmxGeometry%20x%3D%22174%22%20y%3D%22260%22%20width%3D%2240%22%20height%3D%2230%22%20as%3D%22geometry%22%2F%3E%3C%2FmxCell%3E%3C%2Froot%3E%3C%2FmxGraphModel%3E&lt;/span&gt;" style="rounded=0;whiteSpace=wrap;html=1;fillColor=#FFFFFF;" parent="110" vertex="1">
                    <mxGeometry x="60.28" width="20" height="10" as="geometry"/>
                </mxCell>
                <mxCell id="122" value="&lt;font style=&quot;font-size: 23px;&quot;&gt;&lt;b&gt;×&lt;/b&gt;&lt;/font&gt;" style="rounded=1;whiteSpace=wrap;html=1;fillColor=none;strokeColor=none;" parent="1" vertex="1">
                    <mxGeometry x="880" y="85" width="70" height="30" as="geometry"/>
                </mxCell>
                <mxCell id="123" value="| |" style="rounded=1;whiteSpace=wrap;html=1;strokeWidth=2;" parent="1" vertex="1">
                    <mxGeometry x="770" y="225" width="30" height="30" as="geometry"/>
                </mxCell>
            </root>
        </mxGraphModel>
    </diagram>
</mxfile>